<svg xmlns="http://www.w3.org/2000/svg" viewBox="0 0 147.067 44.991">
  <path d="M497.481,398.852h5.665l6.792,13.97v-13.97h4.373v19.581h-5.665l-6.821-13.943v13.943h-4.345Zm24.134,18.866a8.791,8.791,0,0,1-3.479-3.63,12.7,12.7,0,0,1,0-10.877,8.772,8.772,0,0,1,3.479-3.644,11.124,11.124,0,0,1,10.409,0,8.839,8.839,0,0,1,3.506,3.644,12.567,12.567,0,0,1,0,10.877,8.859,8.859,0,0,1-3.506,3.63,11.126,11.126,0,0,1-10.409,0Zm7.934-3.52a5.047,5.047,0,0,0,1.856-2.214,8.792,8.792,0,0,0,0-6.683,5.138,5.138,0,0,0-1.856-2.227,4.88,4.88,0,0,0-2.736-.784,4.813,4.813,0,0,0-2.723.784,5.173,5.173,0,0,0-1.843,2.227,8.788,8.788,0,0,0,0,6.683,5.081,5.081,0,0,0,1.843,2.214,4.876,4.876,0,0,0,2.723.77A4.944,4.944,0,0,0,529.549,414.2Zm21.357,4.414a3.315,3.315,0,0,1-1.21-1.045,4.947,4.947,0,0,1-.729-1.554l-.825-3.328a2.554,2.554,0,0,0-.77-1.251,1.8,1.8,0,0,0-1.21-.481h-2.145v7.48H539.37V398.852H547.7a9.226,9.226,0,0,1,3.919.784,6.014,6.014,0,0,1,2.6,2.186,5.7,5.7,0,0,1,.907,3.163,5.325,5.325,0,0,1-.495,2.31,5.255,5.255,0,0,1-1.375,1.787,5.139,5.139,0,0,1-2.008,1.045,2.922,2.922,0,0,1,.894.907,4.046,4.046,0,0,1,.536,1.348l.632,2.53a1.726,1.726,0,0,0,.33.729.688.688,0,0,0,.55.261,1.083,1.083,0,0,0,.578-.192,1.959,1.959,0,0,0,.577-.633l1.1,2.255a5.426,5.426,0,0,1-1.746,1.2,5.173,5.173,0,0,1-2.1.454A3.679,3.679,0,0,1,550.906,418.612Zm-3.534-10.932a3.481,3.481,0,0,0,1.554-.344,2.655,2.655,0,0,0,1.086-.935,2.392,2.392,0,0,0,.385-1.334,2.609,2.609,0,0,0-.385-1.43,2.531,2.531,0,0,0-1.086-.935,3.6,3.6,0,0,0-1.554-.33h-3.328v5.308Zm14.515-4.813h-5.143v-4.015h14.933v4.015h-5.115v15.565h-4.675Zm12.391-4.015h4.675v7.535h6.49v-7.535h4.7v19.581h-4.7v-8.25h-6.49v8.25h-4.675Zm18.469,0h12.238v3.768h-7.728v4.125h6.628v3.328h-6.628v4.593h8v3.768H592.748ZM619.4,418.612a3.317,3.317,0,0,1-1.21-1.045,4.946,4.946,0,0,1-.729-1.554l-.825-3.328a2.557,2.557,0,0,0-.77-1.251,1.8,1.8,0,0,0-1.21-.481H612.51v7.48h-4.648V398.852h8.333a9.225,9.225,0,0,1,3.919.784,6.014,6.014,0,0,1,2.6,2.186,5.7,5.7,0,0,1,.907,3.163,5.328,5.328,0,0,1-.495,2.31,5.257,5.257,0,0,1-1.375,1.787,5.141,5.141,0,0,1-2.008,1.045,2.92,2.92,0,0,1,.894.907,4.042,4.042,0,0,1,.536,1.348l.633,2.53a1.725,1.725,0,0,0,.33.729.688.688,0,0,0,.55.261,1.082,1.082,0,0,0,.577-.192,1.963,1.963,0,0,0,.578-.633l1.1,2.255a5.424,5.424,0,0,1-1.746,1.2,5.174,5.174,0,0,1-2.1.454A3.679,3.679,0,0,1,619.4,418.612Zm-3.534-10.932a3.48,3.48,0,0,0,1.554-.344,2.656,2.656,0,0,0,1.086-.935,2.393,2.393,0,0,0,.385-1.334,2.609,2.609,0,0,0-.385-1.43,2.533,2.533,0,0,0-1.086-.935,3.6,3.6,0,0,0-1.554-.33h-3.328v5.308Zm11.275-8.828h5.665l6.793,13.97v-13.97h4.372v19.581h-5.665l-6.82-13.943v13.943H627.14Zm-125.588,43.08a9.179,9.179,0,0,1-3.424-3.671A11.387,11.387,0,0,1,496.9,432.9a11.922,11.922,0,0,1,1.169-5.377,9.013,9.013,0,0,1,3.231-3.671,8.582,8.582,0,0,1,4.73-1.32,8.392,8.392,0,0,1,3.905.908,8.2,8.2,0,0,1,2.929,2.53,9.09,9.09,0,0,1,1.554,3.713l-4.318.825a5.794,5.794,0,0,0-.839-2.09,4.5,4.5,0,0,0-1.416-1.375,3.416,3.416,0,0,0-1.788-.5,3.553,3.553,0,0,0-2.3.811,5.516,5.516,0,0,0-1.595,2.241,8.577,8.577,0,0,0-.591,3.3,7.681,7.681,0,0,0,.674,3.286,5.581,5.581,0,0,0,1.788,2.241,4.256,4.256,0,0,0,2.544.8,4.312,4.312,0,0,0,2.255-.591,5.055,5.055,0,0,0,1.677-1.678,6.582,6.582,0,0,0,.908-2.6l4.4.66a10,10,0,0,1-1.581,4.331,8.677,8.677,0,0,1-3.231,2.888,10.1,10.1,0,0,1-9.46-.3Zm16.354-18.824h4.675v7.535h6.49v-7.535h4.7v19.581h-4.7v-8.25h-6.49v8.25h-4.675Zm18.469,0h4.675v19.581h-4.675Zm7.277,0h4.675v15.565h6.93v4.015h-11.6Zm14.206,0h7.15a10.791,10.791,0,0,1,5.225,1.237,8.778,8.778,0,0,1,3.534,3.451,10.969,10.969,0,0,1-.013,10.2,8.868,8.868,0,0,1-3.548,3.451,10.79,10.79,0,0,1-5.225,1.237h-7.123Zm7.068,15.813a5.386,5.386,0,0,0,2.833-.728,5.01,5.01,0,0,0,1.9-2.09,7.87,7.87,0,0,0,0-6.435,4.92,4.92,0,0,0-1.9-2.076,5.467,5.467,0,0,0-2.833-.715h-2.5v12.045Zm24.2,3.947a3.314,3.314,0,0,1-1.21-1.045,4.941,4.941,0,0,1-.729-1.554l-.825-3.328a2.555,2.555,0,0,0-.77-1.251,1.8,1.8,0,0,0-1.21-.481H582.24v7.48h-4.648V423.108h8.333a9.226,9.226,0,0,1,3.919.784,6.015,6.015,0,0,1,2.6,2.186,5.7,5.7,0,0,1,.908,3.163,5.326,5.326,0,0,1-.5,2.31,5.252,5.252,0,0,1-1.375,1.788,5.139,5.139,0,0,1-2.007,1.045,2.92,2.92,0,0,1,.894.907,4.044,4.044,0,0,1,.536,1.348l.632,2.53a1.725,1.725,0,0,0,.33.729.688.688,0,0,0,.55.261,1.081,1.081,0,0,0,.577-.192,1.959,1.959,0,0,0,.577-.633l1.1,2.255a5.425,5.425,0,0,1-1.746,1.2,5.174,5.174,0,0,1-2.1.454A3.678,3.678,0,0,1,589.129,442.867ZM585.6,431.936a3.481,3.481,0,0,0,1.554-.344,2.653,2.653,0,0,0,1.086-.935,2.392,2.392,0,0,0,.385-1.334,2.609,2.609,0,0,0-.385-1.43,2.531,2.531,0,0,0-1.086-.935,3.6,3.6,0,0,0-1.554-.33h-3.328v5.308Zm10.961-8.828h12.238v3.768h-7.728V431h6.628v3.328h-6.628v4.592h8v3.768H596.557Zm14.839,0h5.665l6.792,13.97v-13.97h4.373v19.581h-5.665l-6.82-13.943v13.943H611.4Z" transform="translate(-496.904 -398.275)" fill="currentColor"/>
</svg>
