<svg xmlns="http://www.w3.org/2000/svg" xmlns:xlink="http://www.w3.org/1999/xlink" width="30" height="30" viewBox="0 0 30 30">
  <defs>
    <clipPath id="clip-path">
      <rect width="30" height="30" fill="#262626"/>
    </clipPath>
  </defs>
  <g clip-path="url(#clip-path)">
    <path d="M15,12.138A2.862,2.862,0,1,1,12.139,15,2.862,2.862,0,0,1,15,12.138m6.923-.6v6.924A4.734,4.734,0,0,1,21.681,20a2.835,2.835,0,0,1-1.627,1.627,4.735,4.735,0,0,1-1.592.3H11.539A4.762,4.762,0,0,1,10,21.681a2.84,2.84,0,0,1-1.627-1.627,4.76,4.76,0,0,1-.3-1.592V11.538a4.757,4.757,0,0,1,.242-1.592A2.838,2.838,0,0,1,9.946,8.377a4.741,4.741,0,0,1,1.593-.3h6.923a4.732,4.732,0,0,1,1.592.242,2.84,2.84,0,0,1,1.627,1.627,4.732,4.732,0,0,1,.242,1.592M19.4,15h0A4.4,4.4,0,1,0,15,19.4,4.4,4.4,0,0,0,19.4,15m.22-3.542h0a1.027,1.027,0,0,0,.978-1.073v-.01a1.027,1.027,0,1,0-.98,1.071ZM30,15A15,15,0,1,1,15,0,15,15,0,0,1,30,15m-6.519,0V11.469a6.282,6.282,0,0,0-.4-2.077,4.389,4.389,0,0,0-2.469-2.469,6.308,6.308,0,0,0-2.077-.4H11.469a6.3,6.3,0,0,0-2.076.4,4.387,4.387,0,0,0-2.47,2.469,6.308,6.308,0,0,0-.4,2.077v7.062a6.308,6.308,0,0,0,.4,2.077,4.387,4.387,0,0,0,2.47,2.469,6.3,6.3,0,0,0,2.076.4h7.062a6.308,6.308,0,0,0,2.077-.4,4.387,4.387,0,0,0,2.5-2.469,6.308,6.308,0,0,0,.4-2.077c.046-.912-.035-1.154-.035-3.531" fill="#262626"/>
  </g>
</svg>
