<?xml version="1.0" encoding="utf-8"?>
<!-- Generator: Adobe Illustrator 26.3.1, SVG Export Plug-In . SVG Version: 6.00 Build 0)  -->
<svg width="30" height="30" version="1.1" id="Layer_1" xmlns="http://www.w3.org/2000/svg" xmlns:xlink="http://www.w3.org/1999/xlink" x="0px" y="0px"
	 viewBox="0 0 30 30" style="enable-background:new 0 0 30 30;" xml:space="preserve">
<style type="text/css">
	.st0{fill:#262422;}
</style>
<path class="st0" d="M23.1,21.5h-3.2v-5.2c0-1.3-0.5-2.2-1.6-2.2c-0.7,0-1.4,0.5-1.7,1.2c-0.1,0.3-0.1,0.5-0.1,0.8v5.5h-3.3
	c0,0,0-8.9,0-9.8h3.3v1.4c0.6-1,1.7-1.6,2.9-1.6c2.1,0,3.7,1.4,3.7,4.4V21.5z M9.7,10.4L9.7,10.4C8.8,10.5,8,9.8,7.9,8.8
	C7.8,7.9,8.5,7.1,9.5,7c0.1,0,0.2,0,0.3,0c0.9-0.1,1.8,0.6,1.8,1.6c0.1,0.9-0.6,1.8-1.6,1.8C9.9,10.4,9.8,10.4,9.7,10.4 M11.4,21.5
	H8.1v-9.7h3.3L11.4,21.5z M15,0C6.7,0,0,6.7,0,15s6.7,15,15,15s15-6.7,15-15S23.3,0,15,0"/>
</svg>
